<svg xmlns="http://www.w3.org/2000/svg" xmlns:xlink="http://www.w3.org/1999/xlink" viewBox="0,0,256,256" width="480px" height="480px"><g fill="none" fill-rule="nonzero" stroke="none" stroke-width="1" stroke-linecap="butt" stroke-linejoin="miter" stroke-miterlimit="10" stroke-dasharray="" stroke-dashoffset="0" font-family="none" font-weight="none" font-size="none" text-anchor="none" style="mix-blend-mode: normal"><g transform="scale(5.33333,5.33333)"><path d="M43.847,24c-0.293,-1.912 -0.958,-3.441 -1.539,-4.479c-0.869,-1.555 -2.534,-2.521 -4.344,-2.521h-4.964v-4.964c0,-1.81 -0.966,-3.475 -2.521,-4.344c-1.378,-0.772 -3.622,-1.692 -6.479,-1.692c-2.857,0 -5.101,0.92 -6.479,1.692c-1.555,0.869 -2.521,2.534 -2.521,4.344v4.964h-4.964c-1.81,0 -3.475,0.966 -4.344,2.521c-0.581,1.038 -1.246,2.567 -1.539,4.479h-0.153v2c0,2.857 0.92,5.101 1.692,6.479c0.869,1.555 2.534,2.521 4.344,2.521h4.964v4.964c0,1.81 0.966,3.475 2.521,4.344c1.378,0.772 3.622,1.692 6.479,1.692c2.857,0 5.101,-0.92 6.479,-1.692c1.555,-0.869 2.521,-2.534 2.521,-4.344v-4.964h4.964c1.81,0 3.475,-0.966 4.344,-2.521c0.772,-1.378 1.692,-3.622 1.692,-6.479v-2z" fill="#ff0100"></path><path d="M41.436,18.009c-0.701,-1.252 -2.037,-2.009 -3.472,-2.009h-1.964h-3h-1v-4v-1.964c0,-1.434 -0.757,-2.771 -2.009,-3.471c-1.377,-0.772 -3.42,-1.565 -5.991,-1.565c-2.571,0 -4.614,0.793 -5.991,1.564c-1.252,0.701 -2.009,2.037 -2.009,3.472v1.964v3v1h-3h-2.964c-1.435,0 -2.771,0.757 -3.471,2.009c-0.771,1.377 -1.565,3.42 -1.565,5.991c0,2.571 0.794,4.614 1.564,5.991c0.701,1.252 2.037,2.009 3.472,2.009h2.964h2h1v4v1.964c0,1.434 0.757,2.771 2.009,3.471c1.377,0.771 3.42,1.565 5.991,1.565c2.571,0 4.614,-0.794 5.991,-1.564c1.252,-0.701 2.009,-2.037 2.009,-3.472v-1.964v-3v-1h4h1.964c1.435,0 2.771,-0.757 3.471,-2.009c0.771,-1.377 1.565,-3.42 1.565,-5.991c0,-2.571 -0.794,-4.614 -1.564,-5.991z" fill="#ffffff"></path><circle cx="20.5" cy="10.5" r="1.5" fill="#ff0100"></circle><circle cx="27.5" cy="37.5" r="1.5" fill="#ff0100"></circle><path d="M15,33h-4.964c-1.81,0 -3.475,-0.966 -4.344,-2.521c-0.772,-1.378 -1.692,-3.622 -1.692,-6.479c0,-2.857 0.92,-5.101 1.692,-6.479c0.869,-1.555 2.534,-2.521 4.344,-2.521h12.964c0.552,0 1,0.448 1,1c0,0.552 -0.448,1 -1,1h-12.964c-1.086,0 -2.082,0.574 -2.599,1.497c-0.656,1.171 -1.437,3.077 -1.437,5.503c0,2.426 0.781,4.332 1.437,5.503c0.517,0.923 1.512,1.497 2.599,1.497h4.964c0.552,0 1,0.448 1,1c0,0.552 -0.448,1 -1,1z" fill="#ff0100"></path><path d="M37.964,33h-12.964c-0.552,0 -1,-0.448 -1,-1c0,-0.552 0.448,-1 1,-1h12.964c1.086,0 2.082,-0.574 2.599,-1.497c0.656,-1.171 1.437,-3.077 1.437,-5.503c0,-2.426 -0.781,-4.332 -1.437,-5.503c-0.517,-0.923 -1.512,-1.497 -2.599,-1.497h-4.964c-0.552,0 -1,-0.448 -1,-1c0,-0.552 0.448,-1 1,-1h4.964c1.81,0 3.475,0.966 4.344,2.521c0.772,1.378 1.692,3.622 1.692,6.479c0,2.857 -0.92,5.101 -1.692,6.479c-0.869,1.555 -2.534,2.521 -4.344,2.521z" fill="#ff0100"></path><path d="M24,44c-2.857,0 -5.101,-0.92 -6.479,-1.692c-1.555,-0.869 -2.521,-2.534 -2.521,-4.344v-8.964c0,-3.309 2.691,-6 6,-6h6c2.206,0 4,-1.794 4,-4v-8.964c0,-1.086 -0.574,-2.082 -1.497,-2.599c-1.171,-0.656 -3.077,-1.437 -5.503,-1.437c-2.426,0 -4.332,0.781 -5.503,1.437c-0.923,0.517 -1.497,1.512 -1.497,2.599v4.964c0,0.552 -0.448,1 -1,1c-0.552,0 -1,-0.448 -1,-1v-4.964c0,-1.81 0.966,-3.475 2.521,-4.344c1.378,-0.772 3.622,-1.692 6.479,-1.692c2.857,0 5.101,0.92 6.479,1.692c1.555,0.869 2.521,2.534 2.521,4.344v8.964c0,3.309 -2.691,6 -6,6h-6c-2.206,0 -4,1.794 -4,4v8.964c0,1.086 0.574,2.082 1.497,2.599c1.171,0.656 3.077,1.437 5.503,1.437c2.426,0 4.332,-0.781 5.503,-1.437c0.923,-0.517 1.497,-1.512 1.497,-2.599v-4.964c0,-0.552 0.448,-1 1,-1c0.552,0 1,0.448 1,1v4.964c0,1.81 -0.966,3.475 -2.521,4.344c-1.378,0.772 -3.622,1.692 -6.479,1.692z" fill="#ff0100"></path></g></g></svg>